<?xml version="1.0" encoding="UTF-8"?>
<svg id="logo" xmlns="http://www.w3.org/2000/svg" viewBox="0 0 250 250">
  <defs>
    <style>
      .cls-1, .cls-2 {
        fill: #30e3ca;
      }

      .cls-2, .cls-3 {
        fill-rule: evenodd;
      }

      .cls-3, .cls-4 {
        fill: #11999e;
      }
    </style>
  </defs>
  <path class="cls-1" d="M53.85,32.73c9.92-7.77,21.05-13.89,32.81-18.13,28.34-10.2,60.57-9.61,89.97,4.21,9.54,4.48,18.41,10.19,26.31,16.94v.04c7.98,6.78,15.02,14.57,20.91,23.2l-8.12,1.88c-5.2-7.6-15.94-7.53-22.79-13.38h-.03c-6.91-5.85-14.58-10.82-22.82-14.68-25.56-12.05-46.3,8.31-70.93,17.21C47.25,40.57,17.96,107.6,26.62,146.14c-20.74-40.41-3.49-89.28,27.24-113.41h0Z"/>
  <path class="cls-2" d="M63.37,27.36c-19.23,23.54,18.14-4.99,29.33,13.79,5.44,9.07,13.79,17.24,24.43,24.12,18.25,11.8,22.39,10.37,31.97,24.98,6.56,9.96,17.79-10.5,.65-24.77-7.02-5.78-15.23-11.7-13.93-16.9,1.84-7.32,15.88-7.19,21.63-6.33,25.93,3.73,35.72,8.56,48.52,17.11,12.56,8.46,19.54,16.49,24.67,15.5,8.56-1.68,.99-9.17-.33-10.92-9.07-11.57-33.16-34.39-56.64-39.46-29.56-6.4-62.28-30.9-110.29,2.87h0Zm110.98,21.76c2.32,3.42,4.41,6.81,5.95,10,7.35,15.09,14.36,16.66,16.94,14.03,1.81-1.92-3.29-10.99-8.32-19.64-4.21-1.68-8.9-3.12-14.57-4.38h0Zm16.63,5.24c3.15,4.07,5.99,8.21,8,12.04,7.87,14.85,14.93,16.18,17.39,13.48,1.4-1.57-1.64-7.42-5.61-13.99-1.64-1.16-3.42-2.36-5.27-3.56-4.93-3.15-9.41-5.78-14.51-7.97h0Zm-30.21-7.6c1.37,2.16,2.6,4.27,3.56,6.29,6.67,13.73,13.04,15.13,15.37,12.73,1.6-1.67-2.64-9.41-7.04-17.01-3.57-.72-7.47-1.4-11.88-2.02h0Z"/>
  <path class="cls-4" d="M198.36,217.24c-9.95,7.8-21.04,13.9-32.81,18.14-28.33,10.23-60.57,9.64-90-4.18-9.54-4.48-18.37-10.19-26.31-16.94l.04-.03c-7.98-6.78-15.02-14.58-20.91-23.21l8.11-1.87c5.16,7.6,15.95,7.52,22.79,13.35h.03c6.92,5.88,14.58,10.84,22.79,14.71,25.59,12.01,46.34-8.32,70.97-17.22,51.91,9.41,81.16-57.62,72.55-96.11,20.69,40.38,3.48,89.28-27.24,113.36h0Z"/>
  <path class="cls-3" d="M188.81,222.65c19.23-23.54-18.1,5-29.29-13.79-5.44-9.1-13.79-17.28-24.43-24.16-18.24-11.77-22.38-10.33-31.99-24.95-6.54-9.95-17.77,10.47-.61,24.74,6.98,5.81,15.22,11.7,13.89,16.94-1.81,7.29-15.88,7.15-21.59,6.33-25.94-3.76-35.77-8.59-48.52-17.14-12.56-8.41-19.55-16.49-24.71-15.47-8.56,1.64-.99,9.17,.38,10.88,9.06,11.6,33.16,34.43,56.6,39.49,29.6,6.4,62.28,30.9,110.29-2.87h0Zm-110.94-21.8c-2.36-3.38-4.41-6.81-5.96-9.96-7.36-15.09-14.37-16.66-16.94-14.02-1.84,1.91,3.25,10.95,8.32,19.63,4.2,1.68,8.86,3.12,14.57,4.35h0Zm-16.63-5.2c-3.15-4.08-6.03-8.25-8.05-12.05-7.83-14.89-14.92-16.22-17.38-13.48-1.4,1.53,1.67,7.41,5.65,13.99,1.64,1.17,3.39,2.36,5.26,3.56,4.93,3.15,9.41,5.75,14.52,7.97h0Zm30.21,7.56c-1.37-2.16-2.6-4.28-3.59-6.26-6.64-13.72-13.04-15.12-15.32-12.73-1.65,1.64,2.63,9.38,7.04,17.01,3.53,.72,7.46,1.37,11.87,1.98h0Z"/>
</svg>